<svg width="148" height="109" viewBox="0 0 148 109" fill="none" xmlns="http://www.w3.org/2000/svg">
<g clip-path="url(#clip0)">
<path opacity="0.1" d="M14.7958 10.9144C13.8803 11.2926 12.9407 11.7781 12.4376 12.6292C11.9047 13.5283 11.9685 14.6447 12.0677 15.6849C12.9322 24.7064 15.2096 34.3011 11.2769 42.473C9.36791 46.4376 6.17496 49.6146 3.63533 53.215C1.09571 56.8155 -0.821769 61.3108 0.357343 65.5463C1.79722 70.7219 7.17125 73.5912 10.7936 77.5742C13.1646 80.1782 14.827 83.3425 17.0392 86.082C19.2515 88.8215 22.2829 91.235 25.8145 91.3959C30.8938 91.6287 35.0264 87.2605 40.0064 86.2485C45.1083 85.2126 50.2457 87.849 54.3825 91.0049C58.5193 94.1608 62.282 97.9842 67.1019 99.9545C72.4249 102.132 78.4253 101.799 84.029 103.108C89.1309 104.3 93.8275 106.836 98.8926 108.189C103.958 109.541 109.894 109.459 113.819 106.005C118.933 101.489 118.531 93.4438 121.797 87.4694C124.832 81.9184 130.771 78.6045 134.769 73.6971C141.963 64.8646 141.728 51.3647 135.619 41.7588C129.511 32.1529 118.447 26.3366 107.134 24.8222C102.032 24.1405 96.7781 24.2336 91.8732 22.6825C78.7442 18.533 70.9312 3.6655 57.5273 0.571742C49.0071 -1.3915 40.7207 2.00853 33.4632 6.19329C27.1637 9.8262 21.3518 8.20593 14.7958 10.9144Z" fill="#64B6AC"/>
<path d="M27.5902 40.0594C27.5902 40.0594 22.7532 44.6055 17.562 44.741C15.3821 44.7842 13.2751 45.5305 11.5574 46.8679C10.7454 47.5071 9.99399 48.2191 9.3125 48.9949" stroke="#535461" stroke-width="2" stroke-miterlimit="10"/>
<path d="M6.03891 49.1064C6.73617 48.7535 9.39768 48.9878 9.39768 48.9878C9.39768 48.9878 8.01732 51.2672 7.32006 51.6201C7.15307 51.7187 6.96752 51.782 6.77493 51.8063C6.58233 51.8305 6.38679 51.815 6.20043 51.7609C6.01408 51.7067 5.84088 51.615 5.69158 51.4915C5.54228 51.3679 5.42006 51.2151 5.33251 51.0425C5.24495 50.87 5.19392 50.6814 5.18259 50.4884C5.17126 50.2954 5.19987 50.1021 5.26663 49.9206C5.3334 49.739 5.4369 49.5731 5.57072 49.433C5.70454 49.293 5.86583 49.1818 6.04458 49.1064H6.03891Z" fill="#615EBF"/>
<path d="M8.84055 45.0769C9.61859 45.1587 11.7246 46.796 11.7246 46.796C11.7246 46.796 9.31531 47.9618 8.54435 47.8813C8.18366 47.827 7.85787 47.6363 7.63478 47.3489C7.41169 47.0615 7.30849 46.6994 7.34665 46.3381C7.38481 45.9768 7.56139 45.6441 7.83965 45.4092C8.11791 45.1742 8.47641 45.0552 8.84055 45.0769Z" fill="#615EBF"/>
<path d="M15.4844 41.8293C16.1136 42.2908 17.1028 44.7635 17.1028 44.7635C17.1028 44.7635 14.4371 44.5617 13.8078 44.1016C13.5242 43.8734 13.3398 43.5451 13.293 43.185C13.2462 42.8249 13.3405 42.4607 13.5564 42.168C13.7723 41.8754 14.0931 41.6769 14.4522 41.6139C14.8113 41.5508 15.181 41.6279 15.4844 41.8293Z" fill="#615EBF"/>
<path d="M21.0668 40.5012C21.7654 40.8498 23.16 43.1207 23.16 43.1207C23.16 43.1207 20.4985 43.3705 19.7998 43.0219C19.6235 42.9452 19.4647 42.8336 19.3331 42.6939C19.2016 42.5542 19.0999 42.3892 19.0344 42.2091C18.9689 42.029 18.9409 41.8375 18.9521 41.6462C18.9633 41.455 19.0135 41.268 19.0996 41.0967C19.1857 40.9254 19.3059 40.7733 19.4529 40.6498C19.6 40.5263 19.7707 40.4338 19.9547 40.3781C20.1388 40.3224 20.3323 40.3046 20.5235 40.3257C20.7146 40.3469 20.8995 40.4066 21.0668 40.5012Z" fill="#615EBF"/>
<path d="M13.2055 49.3661C13.4379 48.6223 12.7576 46.0479 12.7576 46.0479C12.7576 46.0479 10.7339 47.7867 10.5014 48.5305C10.436 48.7101 10.4077 48.901 10.4185 49.0917C10.4292 49.2824 10.4788 49.4689 10.564 49.64C10.6493 49.8111 10.7686 49.9632 10.9146 50.087C11.0606 50.2109 11.2303 50.3039 11.4135 50.3605C11.5967 50.4171 11.7895 50.4361 11.9802 50.4163C12.171 50.3965 12.3557 50.3384 12.5233 50.2454C12.6908 50.1525 12.8377 50.0266 12.9549 49.8754C13.0722 49.7243 13.1574 49.551 13.2055 49.3661Z" fill="#615EBF"/>
<path d="M19.7149 47.7247C19.7149 46.9456 18.2906 44.693 18.2906 44.693C18.2906 44.693 16.8819 46.9512 16.8833 47.7331C16.8844 48.1075 17.0348 48.466 17.3014 48.7299C17.568 48.9938 17.9289 49.1414 18.3048 49.1403C18.6806 49.1392 19.0406 48.9894 19.3056 48.7239C19.5706 48.4584 19.7188 48.099 19.7177 47.7247H19.7149Z" fill="#615EBF"/>
<path d="M25.8214 45.2745C25.9517 44.5067 24.9313 42.0466 24.9313 42.0466C24.9313 42.0466 23.1584 44.0395 23.0295 44.8073C22.9859 45.1675 23.0833 45.5306 23.3015 45.8212C23.5196 46.1117 23.8417 46.3075 24.201 46.3678C24.5602 46.4281 24.929 46.3483 25.2307 46.145C25.5324 45.9416 25.744 45.6304 25.8214 45.2759V45.2745Z" fill="#615EBF"/>
<path d="M33.8752 28.0202C33.8752 28.0202 28.0491 24.8333 26.3172 19.9513C25.6058 17.8984 24.2447 16.1309 22.4384 14.9141C21.5764 14.3429 20.6637 13.8516 19.7117 13.4463" stroke="#535461" stroke-width="2" stroke-miterlimit="10"/>
<path d="M18.6066 10.3765C19.1579 10.9284 19.7517 13.5239 19.7517 13.5239C19.7517 13.5239 17.1497 12.917 16.5984 12.3638C16.355 12.0945 16.2248 11.7423 16.2349 11.3802C16.245 11.018 16.3946 10.6735 16.6527 10.4181C16.9107 10.1628 17.2575 10.016 17.6213 10.0083C17.985 10.0005 18.3378 10.1324 18.6066 10.3765Z" fill="#615EBF"/>
<path d="M23.3188 11.7921C23.4803 12.5543 22.5634 15.0538 22.5634 15.0538C22.5634 15.0538 20.7111 13.1358 20.5495 12.3722C20.5016 12.1875 20.4917 11.9951 20.5205 11.8066C20.5493 11.618 20.6162 11.4372 20.7171 11.2751C20.818 11.113 20.9509 10.9729 21.1077 10.8634C21.2645 10.7538 21.4419 10.6771 21.6294 10.6378C21.8168 10.5984 22.0102 10.5973 22.1981 10.6345C22.3859 10.6717 22.5642 10.7465 22.7223 10.8542C22.8803 10.962 23.0147 11.1005 23.1175 11.2615C23.2203 11.4225 23.2892 11.6025 23.3202 11.7907L23.3188 11.7921Z" fill="#615EBF"/>
<path d="M28.4631 17.0975C28.2165 17.8357 26.1573 19.5336 26.1573 19.5336C26.1573 19.5336 25.5309 16.9465 25.7775 16.2069C25.8961 15.8513 26.1516 15.5572 26.488 15.3893C26.8243 15.2213 27.2139 15.1933 27.5709 15.3114C27.928 15.4295 28.2234 15.684 28.392 16.019C28.5606 16.354 28.5887 16.7419 28.4702 17.0975H28.4631Z" fill="#615EBF"/>
<path d="M31.4507 21.9739C31.3331 22.7431 29.5913 24.7628 29.5913 24.7628C29.5913 24.7628 28.5341 22.3183 28.6517 21.5491C28.6713 21.359 28.7295 21.1748 28.8227 21.0078C28.9159 20.8407 29.0421 20.6942 29.1939 20.5773C29.3456 20.4603 29.5196 20.3752 29.7053 20.3271C29.891 20.2791 30.0846 20.2691 30.2743 20.2978C30.464 20.3265 30.6459 20.3933 30.809 20.4941C30.972 20.5949 31.1128 20.7276 31.2228 20.8842C31.3328 21.0408 31.4097 21.218 31.4488 21.405C31.488 21.5921 31.4887 21.7852 31.4507 21.9725V21.9739Z" fill="#615EBF"/>
<path d="M20.5608 17.2486C21.3431 17.2401 23.5936 15.8033 23.5936 15.8033C23.5936 15.8033 21.3105 14.4201 20.5282 14.4286C20.1523 14.4329 19.7936 14.5857 19.5309 14.8535C19.2681 15.1212 19.123 15.4819 19.1273 15.8562C19.1316 16.2305 19.2851 16.5878 19.5539 16.8495C19.8227 17.1111 20.1849 17.2557 20.5608 17.2514V17.2486Z" fill="#615EBF"/>
<path d="M24.1267 22.9139C24.8693 22.6725 26.5855 20.6316 26.5855 20.6316C26.5855 20.6316 23.9906 19.9923 23.248 20.2336C23.0647 20.2857 22.8939 20.3741 22.7457 20.4934C22.5976 20.6128 22.4751 20.7607 22.3856 20.9282C22.2961 21.0958 22.2415 21.2796 22.225 21.4687C22.2086 21.6578 22.2305 21.8482 22.2896 22.0287C22.3488 22.2091 22.4438 22.3758 22.5691 22.5188C22.6944 22.6618 22.8474 22.7782 23.0189 22.8609C23.1904 22.9437 23.3769 22.9912 23.5672 23.0005C23.7576 23.0098 23.9478 22.9809 24.1267 22.9153V22.9139Z" fill="#615EBF"/>
<path d="M28.3497 27.9469C29.1235 27.834 31.1614 26.1121 31.1614 26.1121C31.1614 26.1121 28.7125 25.0451 27.9401 25.158C27.7499 25.1775 27.5656 25.2352 27.3983 25.3275C27.2311 25.4198 27.0843 25.5449 26.9669 25.6952C26.8495 25.8455 26.7638 26.0179 26.715 26.2021C26.6663 26.3863 26.6555 26.5783 26.6832 26.7668C26.711 26.9552 26.7767 27.1361 26.8765 27.2985C26.9763 27.461 27.1081 27.6016 27.264 27.712C27.4198 27.8224 27.5964 27.9003 27.7833 27.9409C27.9701 27.9815 28.1633 27.984 28.3511 27.9483L28.3497 27.9469Z" fill="#615EBF"/>
<path d="M73.9695 105.347C102.303 105.347 125.272 82.4726 125.272 54.2551C125.272 26.0377 102.303 3.16293 73.9695 3.16293C45.6358 3.16293 22.6667 26.0377 22.6667 54.2551C22.6667 82.4726 45.6358 105.347 73.9695 105.347Z" fill="url(#paint0_linear)"/>
<path d="M73.9695 104.501C101.834 104.501 124.422 82.0049 124.422 54.2551C124.422 26.5054 101.834 4.00977 73.9695 4.00977C46.1054 4.00977 23.5171 26.5054 23.5171 54.2551C23.5171 82.0049 46.1054 104.501 73.9695 104.501Z" fill="#615EBF"/>
<path d="M73.9696 94.1973C96.12 94.1973 114.076 76.3146 114.076 54.2551C114.076 32.1956 96.12 14.3128 73.9696 14.3128C51.8192 14.3128 33.8628 32.1956 33.8628 54.2551C33.8628 76.3146 51.8192 94.1973 73.9696 94.1973Z" fill="#DDE1EC"/>
<path opacity="0.3" d="M75.1032 21.3698H72.8357V56.6545H75.1032V21.3698Z" fill="#535461"/>
<g opacity="0.1">
<path opacity="0.1" d="M108.408 53.4083H76.3789V56.2311H108.408V53.4083Z" fill="black"/>
<path opacity="0.1" d="M53.7661 42.8475L52.4512 45.3481L72.604 55.8584L73.9189 53.3577L53.7661 42.8475Z" fill="black"/>
<path opacity="0.1" d="M73.9696 59.0539C76.3177 59.0539 78.2212 57.1582 78.2212 54.8197C78.2212 52.4812 76.3177 50.5855 73.9696 50.5855C71.6215 50.5855 69.718 52.4812 69.718 54.8197C69.718 57.1582 71.6215 59.0539 73.9696 59.0539Z" fill="black"/>
</g>
<path d="M108.408 52.8438H76.3789V55.6665H108.408V52.8438Z" fill="#535461"/>
<path d="M73.9283 52.7964L53.7754 42.2861L52.4605 44.7868L72.6133 55.297L73.9283 52.7964Z" fill="#535461"/>
<path d="M73.9696 58.4893C76.3177 58.4893 78.2212 56.5936 78.2212 54.2551C78.2212 51.9167 76.3177 50.021 73.9696 50.021C71.6215 50.021 69.718 51.9167 69.718 54.2551C69.718 56.5936 71.6215 58.4893 73.9696 58.4893Z" fill="#535461"/>
<g opacity="0.1">
<path opacity="0.1" d="M36.9778 59.0538C36.9778 36.9938 54.9337 19.1116 77.0846 19.1116C83.3018 19.1061 89.4348 20.5424 94.998 23.3067C100.561 26.071 105.402 30.0873 109.136 35.0376C102.311 22.6852 89.1308 14.3128 73.9667 14.3128C51.8159 14.3128 33.8599 32.1951 33.8599 54.2551C33.8469 62.9212 36.677 71.3544 41.9195 78.2712C38.6683 72.3841 36.9682 65.7726 36.9778 59.0538Z" fill="black"/>
</g>
<g opacity="0.1">
<path opacity="0.1" d="M94.3898 66.5398C94.3898 66.5398 94.0908 67.1368 93.6812 67.8538C93.0555 67.5208 92.4507 67.1504 91.87 66.7445L91.7453 66.657L91.6787 66.609L92.3873 65.8299L94.3898 66.5398Z" fill="black"/>
</g>
<g opacity="0.1">
<path opacity="0.1" d="M89.729 67.3133C89.5453 67.4875 89.3958 67.6943 89.2882 67.923C88.2806 67.4699 87.2219 66.8983 86.8364 66.6866L86.8066 66.6711C86.9988 66.43 87.2191 66.2126 87.4628 66.0233C87.4628 66.0233 90.2477 66.8616 89.729 67.3133Z" fill="black"/>
</g>
<g opacity="0.1">
<path opacity="0.1" d="M102.24 31.5741C101.764 31.7492 99.9201 32.4901 99.7161 33.5501C99.5899 33.0779 99.4952 32.5979 99.4326 32.1133L101.7 30.8882C101.915 31.0872 102.097 31.3187 102.24 31.5741Z" fill="black"/>
</g>
<g opacity="0.1">
<path opacity="0.1" d="M88.1756 31.663C87.9987 32.1673 87.7953 32.662 87.5662 33.145C87.4784 32.507 87.117 30.8755 85.687 30.3491C85.9705 29.9637 86.1689 29.7309 86.1689 29.7309L88.1756 31.663Z" fill="black"/>
</g>
<g opacity="0.1">
<path opacity="0.1" d="M98.1444 47.5835C98.1444 47.5835 95.2023 47.3506 92.6499 47.2405L92.3934 47.2292C92.0306 47.2151 91.6848 47.2038 91.3461 47.1954C88.8688 47.1361 86.067 46.2737 85.5908 46.1227C85.7695 45.847 85.9625 45.5809 86.169 45.3253L90.0536 46.1721C90.0536 46.1721 90.6658 46.3669 92.0263 46.9667L89.7942 45.3253L96.5968 46.5504C96.5968 46.5504 96.8335 46.5207 98.0849 47.218L98.1444 47.5835Z" fill="black"/>
</g>
<path opacity="0.05" d="M82.8354 34.7893C82.8354 34.7893 83.0949 36.0144 82.8354 36.4011V34.7893Z" fill="black"/>
<path d="M136.522 62.7051C136.522 62.7051 130.592 68.6103 133.939 77.3722C137.287 86.1341 128.203 100.705 128.203 100.705C128.203 100.705 128.3 100.691 128.486 100.66C140.664 98.519 146.714 84.6493 139.943 74.3448C137.419 70.5129 135.352 66.019 136.522 62.7051Z" fill="#615EBF"/>
<path opacity="0.1" d="M136.522 62.8039C136.522 62.8039 130.592 68.7091 133.939 77.471C137.287 86.2329 128.203 100.803 128.203 100.803C128.203 100.803 128.3 100.789 128.486 100.758C140.664 98.6164 146.714 84.7467 139.943 74.4422C137.419 70.6117 135.352 66.1178 136.522 62.8039Z" fill="black"/>
<path d="M136.522 62.7051C136.522 62.7051 133.175 69.9427 136.522 75.8479C139.869 81.7532 137.089 98.3243 128.202 100.705" stroke="#535461" stroke-miterlimit="10"/>
<path d="M147.083 86.5886C147.083 86.5886 140.317 85.516 139.701 91.5539C139.084 97.5918 126.687 98.4287 126.687 98.4287L126.919 98.5826C137.151 105.273 146.934 102.844 145.459 93.9603C144.915 90.6591 144.96 87.3423 147.083 86.5886Z" fill="#615EBF"/>
<path d="M147.083 86.5886C147.083 86.5886 141.831 87.7361 142.265 92.4924C142.698 97.2488 134.47 102.949 126.692 98.4301" stroke="#535461" stroke-miterlimit="10"/>
<path d="M141.131 98.6489C141.131 98.6489 135.802 97.5875 134.381 96.1719C132.959 94.7563 126.565 92.2807 125.855 94.0548C125.145 95.829 116.263 101.839 122.302 102.9C128.34 103.961 136.512 104.311 138.288 103.606C140.064 102.9 141.131 98.6489 141.131 98.6489Z" fill="#A8A8A8"/>
<path opacity="0.2" d="M122.302 102.238C128.342 103.299 136.512 103.649 138.288 102.944C139.641 102.405 140.581 99.8161 140.952 98.6108L141.129 98.6475C141.129 98.6475 140.064 102.893 138.288 103.6C136.512 104.307 128.341 103.954 122.302 102.894C120.559 102.588 120.06 101.868 120.248 100.958C120.396 101.552 121.004 102.009 122.302 102.238Z" fill="black"/>
</g>
<defs>
<linearGradient id="paint0_linear" x1="73.9695" y1="105.347" x2="73.9695" y2="3.16293" gradientUnits="userSpaceOnUse">
<stop stop-color="#808080" stop-opacity="0.25"/>
<stop offset="0.54" stop-color="#808080" stop-opacity="0.12"/>
<stop offset="1" stop-color="#808080" stop-opacity="0.1"/>
</linearGradient>
<clipPath id="clip0">
<rect width="147.097" height="109" fill="white"/>
</clipPath>
</defs>
</svg>
