<svg width="141" height="100" viewBox="0 0 141 100" fill="none" xmlns="http://www.w3.org/2000/svg">
<path d="M50.8474 79.9323C51.771 77.5074 51.9048 75.3058 51.1462 75.0149C50.3876 74.7239 49.0238 76.4538 48.1002 78.8786C47.1765 81.3035 47.0427 83.5051 47.8014 83.7961C48.56 84.087 49.9237 82.3572 50.8474 79.9323Z" fill="#2F2E41"/>
<path d="M50.062 88.0102C50.8908 82.8854 47.4224 78.0567 42.3151 77.225C37.2078 76.3934 32.3956 79.8737 31.5668 84.9986C30.738 90.1234 34.2064 94.9521 39.3137 95.7837C44.421 96.6154 49.2332 93.1351 50.062 88.0102Z" fill="#2F2E41"/>
<path d="M39.3916 93.8822H36.5454V98.999H39.3916V93.8822Z" fill="#2F2E41"/>
<path d="M45.0837 93.8822H42.2375V98.999H45.0837V93.8822Z" fill="#2F2E41"/>
<path d="M38.9172 99.951C40.2271 99.951 41.289 99.5514 41.289 99.0585C41.289 98.5656 40.2271 98.166 38.9172 98.166C37.6073 98.166 36.5454 98.5656 36.5454 99.0585C36.5454 99.5514 37.6073 99.951 38.9172 99.951Z" fill="#2F2E41"/>
<path d="M44.6093 99.832C45.9192 99.832 46.9811 99.4324 46.9811 98.9395C46.9811 98.4466 45.9192 98.0471 44.6093 98.0471C43.2994 98.0471 42.2375 98.4466 42.2375 98.9395C42.2375 99.4324 43.2994 99.832 44.6093 99.832Z" fill="#2F2E41"/>
<path d="M41.1457 87.336C42.9133 87.2839 44.3041 85.8038 44.2522 84.0301C44.2002 82.2564 42.7252 80.8608 40.9576 80.9129C39.19 80.9651 37.7992 82.4452 37.8511 84.2188C37.9031 85.9925 39.3781 87.3881 41.1457 87.336Z" fill="white"/>
<path d="M41.0517 85.1954C41.6411 85.1954 42.119 84.7159 42.119 84.1244C42.119 83.533 41.6411 83.0535 41.0517 83.0535C40.4622 83.0535 39.9844 83.533 39.9844 84.1244C39.9844 84.7159 40.4622 85.1954 41.0517 85.1954Z" fill="#3F3D56"/>
<path d="M31.7269 77.762C30.9704 74.3625 33.3885 70.9275 37.1279 70.0897C40.8673 69.2518 44.5119 71.3284 45.2683 74.7279C46.0248 78.1273 43.5466 79.3811 39.8072 80.2189C36.0678 81.0568 32.4833 81.1614 31.7269 77.762Z" fill="#E6E6E6"/>
<path d="M34.4948 84.1567C34.8429 83.4203 33.2301 81.9216 30.8926 80.8092C28.5551 79.6967 26.3781 79.3918 26.0301 80.1281C25.682 80.8645 27.2948 82.3632 29.6323 83.4756C31.9698 84.5881 34.1468 84.893 34.4948 84.1567Z" fill="#2F2E41"/>
<path d="M36.2126 89.8958C36.2126 90.8159 38.5736 92.6327 41.1934 92.6327C43.8132 92.6327 46.2696 90.0424 46.2696 89.1223C46.2696 88.2022 43.8132 89.3008 41.1934 89.3008C38.5736 89.3008 36.2126 88.9757 36.2126 89.8958Z" fill="white"/>
<path d="M106.703 60.9576L96.5264 71.0356L73.5288 93.8066L73.0634 94.2671L70.4704 96.8341L65.0342 91.4448L64.5556 90.9711L54.6166 81.1201H54.6144L51.4297 77.9616L49.5481 76.0953L43.9444 70.5423L43.1875 69.7914L34.2556 60.938C32.4811 59.158 30.9771 57.126 29.7918 54.9069C29.6831 54.7083 29.5808 54.5075 29.4807 54.3067C27.3626 50.069 26.4563 45.3252 26.8625 40.602C27.2687 35.8788 28.9715 31.3609 31.7818 27.5501C34.5921 23.7392 38.4 20.7845 42.7827 19.0139C47.1654 17.2433 51.9514 16.7262 56.6092 17.52H56.6114C56.6941 17.5331 56.7746 17.5461 56.8572 17.5636C57.731 17.7183 58.5959 17.9202 59.4481 18.1682C61.6778 18.815 63.8091 19.7646 65.7825 20.9906C65.9892 21.1194 66.1937 21.2504 66.396 21.3835C67.8426 22.3427 69.1887 23.4462 70.4138 24.6773L70.49 24.601L70.5661 24.6773C71.3083 23.9329 72.095 23.2345 72.922 22.5862C73.1025 22.4443 73.2853 22.3046 73.468 22.1693C76.2656 20.0995 79.4546 18.6242 82.8401 17.8338C86.2255 17.0433 89.736 16.9544 93.1569 17.5723C94.0316 17.727 94.8972 17.9296 95.7499 18.1792C96.0348 18.2599 96.3176 18.3472 96.5982 18.4411C96.8244 18.5153 97.0507 18.5917 97.2747 18.6747C99.1401 19.3438 100.921 20.2303 102.58 21.3158C102.944 21.5538 103.302 21.8026 103.655 22.0624C106.644 24.2427 109.127 27.0473 110.932 30.283C112.737 33.5187 113.822 37.1085 114.111 40.8053C114.401 44.502 113.889 48.2179 112.61 51.6969C111.331 55.1759 109.315 58.3353 106.703 60.9576V60.9576Z" fill="#615EBF"/>
<path opacity="0.15" d="M96.5265 71.0356L73.529 93.8066L73.0635 94.2671L70.4705 96.8341L65.0344 91.4448L64.5558 90.9711L54.6167 81.1202C56.2135 80.7469 58.6672 81.2599 59.5656 81.7051C61.6952 82.7594 63.4464 84.4904 65.6087 85.477C67.5396 86.3517 69.6968 86.5909 71.7714 86.1602C75.6478 85.3439 78.6476 82.336 81.2928 79.3761C83.9379 76.414 86.6419 73.2359 90.3595 71.8629C92.3195 71.1382 94.4251 70.9745 96.5265 71.0356Z" fill="black"/>
<path d="M113.246 25.0986C110.081 21.9142 106.142 19.6153 101.819 18.4302C101.532 18.3494 101.247 18.2774 100.958 18.2097C99.7137 17.9115 98.4491 17.7079 97.1747 17.6007C96.9528 17.5789 96.7309 17.5636 96.5069 17.5527C95.389 17.4818 94.2677 17.4861 93.1504 17.5658C87.0303 17.9767 81.2574 20.5658 76.8703 24.8673L76.7919 24.7887L76.7136 24.8673C73.8473 22.0608 70.3693 19.9623 66.5549 18.738C66.3395 18.6681 66.1219 18.6004 65.9044 18.5371C62.9668 17.6822 59.902 17.3534 56.8507 17.5658C56.7659 17.5702 56.681 17.5767 56.5984 17.5854C51.0035 18.0159 45.7021 20.2694 41.5017 24.0029C41.1057 24.3521 40.7163 24.7188 40.3379 25.0986C36.7819 28.6734 34.3402 33.2099 33.3111 38.154C32.282 43.0982 32.71 48.2361 34.5427 52.9402C34.6189 53.1454 34.7015 53.3484 34.7885 53.5514C36.0831 56.6489 37.9681 59.4628 40.3378 61.8351L48.8042 70.2214L49.4699 70.8828L67.7904 89.0284L68.2624 89.4977L73.0742 94.265L76.7918 97.9473L113.246 61.8329C118.094 56.958 120.816 50.3525 120.816 43.4658C120.816 36.5791 118.094 29.9736 113.246 25.0986ZM112.787 61.368L76.7919 97.0262L73.5398 93.8044L68.8302 89.1398L68.3582 88.6726L50.3944 70.8763L49.7395 70.228L40.7989 61.3702C38.5038 59.0732 36.6747 56.3511 35.4129 53.355C35.3259 53.152 35.2431 52.949 35.1671 52.746C33.3688 48.1562 32.9437 43.1397 33.944 38.3112C34.9444 33.4826 37.3266 29.0517 40.7989 25.5614C41.2036 25.1554 41.6177 24.7668 42.041 24.3958H42.0433C46.0844 20.8473 51.1531 18.6928 56.5048 18.249C57.2162 18.1879 57.9282 18.1573 58.641 18.1573C58.9085 18.1573 59.174 18.1617 59.4415 18.1704C61.6276 18.238 63.7957 18.5902 65.8913 19.2182C66.1067 19.2815 66.322 19.3491 66.5352 19.4212C68.8023 20.1626 70.9511 21.2279 72.9155 22.584C74.1943 23.4639 75.3893 24.4606 76.4852 25.5614L76.7158 25.7928L76.7919 25.7164L76.868 25.7928L77.0986 25.5614C79.5358 23.1132 82.4485 21.1938 85.6558 19.9224C88.8631 18.6509 92.2967 18.0546 95.7433 18.1704C96.0196 18.1792 96.2959 18.1923 96.5721 18.2119C96.794 18.225 97.0159 18.2403 97.2357 18.2621C98.6379 18.3883 100.027 18.6329 101.388 18.9933C101.68 19.0676 101.969 19.1483 102.256 19.2378C106.43 20.5043 110.205 22.8347 113.213 26.0017C116.222 29.1687 118.361 33.0641 119.422 37.3079C120.482 41.5518 120.429 45.999 119.266 50.2158C118.103 54.4326 115.871 58.275 112.787 61.368V61.368Z" fill="#3F3D56"/>
<path opacity="0.15" d="M62.2433 19.1592C60.8468 20.2659 59.3479 21.2875 58.4408 22.8001C57.7731 23.9177 57.4837 25.2165 57.2683 26.5C56.8507 28.9971 56.6723 31.5553 55.8543 33.9499C55.0386 36.3444 53.4463 38.632 51.0861 39.5247C49.6221 40.077 48.008 40.0464 46.4483 39.9395C42.6002 39.6775 38.7259 38.9856 35.2628 37.2852C33.3268 36.3335 31.4494 35.05 29.2981 34.9081C28.8603 34.8799 28.4206 34.904 27.9885 34.9801C29.8657 29.1003 33.7937 24.0974 39.0513 20.8899C44.3089 17.6825 50.5431 16.486 56.6092 17.52H56.6115C56.6941 17.5331 56.7746 17.5461 56.8573 17.5636C57.7311 17.7183 58.5959 17.9202 59.4481 18.1683C60.3982 18.444 61.3315 18.7749 62.2433 19.1592Z" fill="black"/>
<path d="M0.874155 88.367C1.88736 88.7244 2.97522 88.8139 4.03292 88.627C5.09062 88.44 6.08251 87.9829 6.91303 87.2996C9.02817 85.5182 9.69133 82.5834 10.2309 79.8659L11.8269 71.828L8.48553 74.1367C6.08259 75.7969 3.62553 77.5103 1.96173 79.9151C0.29794 82.3199 -0.428295 85.6027 0.908506 88.2048L0.874155 88.367Z" fill="#E6E6E6"/>
<path d="M1.15962 98.0985C0.821426 95.6266 0.47367 93.123 0.710896 90.6246C0.921578 88.4058 1.59619 86.2386 2.96962 84.4617C3.69863 83.5203 4.5857 82.7137 5.59094 82.0781C5.85307 81.9121 6.09434 82.329 5.83335 82.4943C4.09398 83.5973 2.74865 85.2262 1.99131 87.1459C1.15484 89.2808 1.02052 91.6079 1.16466 93.8758C1.25183 95.2472 1.43658 96.6097 1.62274 97.9704C1.63742 98.0319 1.62827 98.0968 1.59713 98.1518C1.566 98.2068 1.51521 98.2479 1.45502 98.2668C1.39362 98.2834 1.32817 98.275 1.27287 98.2435C1.21756 98.212 1.17687 98.1599 1.15961 98.0985H1.15962Z" fill="#F2F2F2"/>
<path d="M4.41699 93.7244C4.85154 94.3872 5.44885 94.9264 6.15139 95.2902C6.85392 95.6541 7.638 95.8303 8.42808 95.8018C10.4586 95.705 12.1513 94.283 13.6751 92.933L18.1823 88.9399L15.1993 88.7966C13.0541 88.6936 10.8536 88.5975 8.81039 89.2613C6.76718 89.9251 4.88283 91.5227 4.50921 93.6448L4.41699 93.7244Z" fill="#E6E6E6"/>
<path d="M0.203983 99.5195C1.83176 96.6293 3.71984 93.4173 7.09352 92.3906C8.03158 92.1061 9.01519 92.0042 9.99138 92.0904C10.299 92.117 10.2222 92.5929 9.91511 92.5663C8.27879 92.43 6.64564 92.8636 5.29059 93.794C3.98665 94.6846 2.97139 95.9228 2.11208 97.2358C1.58573 98.0401 1.11426 98.8785 0.642702 99.7158C0.492002 99.9833 0.0515145 99.7902 0.203976 99.5195H0.203983Z" fill="#F2F2F2"/>
<path d="M47.2794 26.0011C52.4535 26.0011 56.648 21.7922 56.648 16.6004C56.648 11.4085 52.4535 7.19963 47.2794 7.19963C42.1053 7.19963 37.9109 11.4085 37.9109 16.6004C37.9109 21.7922 42.1053 26.0011 47.2794 26.0011Z" fill="#2F2E41"/>
<path d="M45.8564 23.9781H43.0103V29.095H45.8564V23.9781Z" fill="#2F2E41"/>
<path d="M51.5488 23.9781H48.7026V29.095H51.5488V23.9781Z" fill="#2F2E41"/>
<path d="M45.382 30.047C46.6919 30.047 47.7538 29.6474 47.7538 29.1545C47.7538 28.6616 46.6919 28.262 45.382 28.262C44.0721 28.262 43.0103 28.6616 43.0103 29.1545C43.0103 29.6474 44.0721 30.047 45.382 30.047Z" fill="#2F2E41"/>
<path d="M51.0744 29.928C52.3843 29.928 53.4462 29.5284 53.4462 29.0355C53.4462 28.5426 52.3843 28.143 51.0744 28.143C49.7645 28.143 48.7026 28.5426 48.7026 29.0355C48.7026 29.5284 49.7645 29.928 51.0744 29.928Z" fill="#2F2E41"/>
<path d="M47.5166 17.4333C49.285 17.4333 50.7185 15.9949 50.7185 14.2204C50.7185 12.446 49.285 11.0075 47.5166 11.0075C45.7482 11.0075 44.3147 12.446 44.3147 14.2204C44.3147 15.9949 45.7482 17.4333 47.5166 17.4333Z" fill="white"/>
<path d="M49.3611 15.6349C49.7762 15.2185 49.774 14.5408 49.3561 14.1213C48.9382 13.7018 48.2628 13.6992 47.8477 14.1156C47.4325 14.532 47.4347 15.2097 47.8527 15.6292C48.2706 16.0488 48.9459 16.0513 49.3611 15.6349Z" fill="#3F3D56"/>
<path d="M38.1917 7.85796C37.4353 4.45851 39.8534 1.02352 43.5928 0.185675C47.3321 -0.652166 50.9767 1.42444 51.7332 4.82389C52.4896 8.22333 50.0114 9.47711 46.2721 10.3149C42.5327 11.1528 38.9482 11.2574 38.1917 7.85796Z" fill="#E6E6E6"/>
<path d="M122.615 80.6524C123.242 80.1339 122.415 78.09 120.769 76.0873C119.123 74.0845 117.281 72.8813 116.655 73.3998C116.028 73.9183 116.854 75.9622 118.5 77.9649C120.146 79.9677 121.989 81.1709 122.615 80.6524Z" fill="#2F2E41"/>
<path d="M129.291 95.6879C134.398 94.8563 137.867 90.0276 137.038 84.9027C136.209 79.7779 131.397 76.2976 126.29 77.1292C121.183 77.9609 117.714 82.7896 118.543 87.9144C119.372 93.0392 124.184 96.5195 129.291 95.6879Z" fill="#2F2E41"/>
<path d="M132.06 93.7863H129.214V98.9032H132.06V93.7863Z" fill="#2F2E41"/>
<path d="M126.367 93.7863H123.521V98.9032H126.367V93.7863Z" fill="#2F2E41"/>
<path d="M129.688 99.8551C130.998 99.8551 132.06 99.4556 132.06 98.9627C132.06 98.4698 130.998 98.0702 129.688 98.0702C128.378 98.0702 127.316 98.4698 127.316 98.9627C127.316 99.4556 128.378 99.8551 129.688 99.8551Z" fill="#2F2E41"/>
<path d="M123.996 99.7362C125.306 99.7362 126.368 99.3366 126.368 98.8437C126.368 98.3508 125.306 97.9512 123.996 97.9512C122.686 97.9512 121.624 98.3508 121.624 98.8437C121.624 99.3366 122.686 99.7362 123.996 99.7362Z" fill="#2F2E41"/>
<path d="M131.071 81.3928C128.117 78.9439 126.475 76.6984 128.686 74.0133C130.898 71.3282 135.084 71.1368 138.038 73.5858C140.992 76.0347 141.593 80.1967 139.382 82.8818C137.171 85.5669 134.024 83.8418 131.071 81.3928Z" fill="#615EBF"/>
<path d="M124.645 84.742C126.413 84.6898 127.804 83.2097 127.752 81.4361C127.7 79.6624 126.225 78.2668 124.457 78.3189C122.69 78.371 121.299 79.8511 121.351 81.6248C121.403 83.3985 122.878 84.7941 124.645 84.742Z" fill="white"/>
<path d="M123.426 81.8056C124.016 81.8056 124.493 81.3261 124.493 80.7346C124.493 80.1432 124.016 79.6637 123.426 79.6637C122.837 79.6637 122.359 80.1432 122.359 80.7346C122.359 81.3261 122.837 81.8056 123.426 81.8056Z" fill="#3F3D56"/>
<path d="M119.712 84.1766C119.063 84.8272 118.605 86.9366 119.517 87.8517C120.429 88.7669 123.109 87.7933 123.758 87.1427C124.406 86.4921 122.777 86.4109 121.865 85.4958C120.953 84.5806 120.36 83.526 119.712 84.1766Z" fill="white"/>
<path d="M136.683 98.9798C137.442 98.6889 137.308 96.4873 136.385 94.0624C135.461 91.6375 134.097 89.9077 133.338 90.1986C132.58 90.4896 132.714 92.6912 133.637 95.1161C134.561 97.5409 135.925 99.2708 136.683 98.9798Z" fill="#2F2E41"/>
</svg>
