<svg width="391" height="384" viewBox="0 0 391 384" fill="none" xmlns="http://www.w3.org/2000/svg">
<g clip-path="url(#clip0)">
<path d="M382.698 319.935H8.28243C3.69899 319.935 -0.0150146 322.246 -0.0150146 325.097V378.481C-0.0150146 381.332 3.69899 383.644 8.28243 383.644H382.698C387.281 383.644 391 381.332 391 378.481V325.097C391 322.246 387.281 319.935 382.698 319.935Z" fill="#64B6AC"/>
<path opacity="0.2" d="M382.698 319.935H8.28243C3.69899 319.935 -0.0150146 322.246 -0.0150146 325.097V378.481C-0.0150146 381.332 3.69899 383.644 8.28243 383.644H382.698C387.281 383.644 391 381.332 391 378.481V325.097C391 322.246 387.281 319.935 382.698 319.935Z" fill="black"/>
<path d="M383.919 319.935H7.08122C3.17037 319.935 0 323.112 0 327.031V372.831C0 376.75 3.17037 379.927 7.08122 379.927H383.919C387.83 379.927 391 376.75 391 372.831V327.031C391 323.112 387.83 319.935 383.919 319.935Z" fill="#64B6AC"/>
<path opacity="0.05" d="M391 328.209H0V333.381H391V328.209Z" fill="white"/>
<path opacity="0.05" d="M391 340.276H0V345.448H391V340.276Z" fill="white"/>
<path opacity="0.05" d="M391 352.343H0V357.515H391V352.343Z" fill="white"/>
<path opacity="0.05" d="M391 364.41H0V369.582H391V364.41Z" fill="white"/>
<g opacity="0.5">
<path opacity="0.5" d="M331.767 105.299C330.696 104.53 329.384 104.175 328.073 104.297C326.761 104.419 325.537 105.011 324.625 105.963C323.641 107.038 323.113 108.455 323.154 109.914C323.195 111.373 323.802 112.758 324.847 113.775L331.672 120.574C331.885 120.788 332.176 120.908 332.478 120.908C332.781 120.908 333.071 120.788 333.285 120.574L340.069 113.734C341.108 112.712 341.708 111.324 341.742 109.865C341.776 108.407 341.241 106.993 340.25 105.923C339.336 104.975 338.11 104.39 336.799 104.274C335.488 104.158 334.18 104.52 333.114 105.293C332.918 105.435 332.683 105.512 332.441 105.513C332.2 105.514 331.964 105.439 331.767 105.299V105.299Z" fill="#615EBF"/>
<g opacity="0.5">
<path d="M332.526 120.307C332.448 120.453 332.407 120.616 332.407 120.783C332.407 120.949 332.448 121.112 332.526 121.258C332.623 121.401 332.711 121.549 332.792 121.702C332.968 122.14 332.662 122.618 332.35 122.976C332.154 123.202 331.938 123.505 332.064 123.782C332.125 123.881 332.204 123.97 332.295 124.044C332.504 124.245 332.657 124.496 332.74 124.774C332.823 125.052 332.832 125.347 332.768 125.629C332.704 125.912 332.568 126.174 332.373 126.388C332.178 126.603 331.932 126.763 331.657 126.854" fill="#615EBF"/>
<path d="M332.526 120.307C332.448 120.453 332.407 120.616 332.407 120.783C332.407 120.949 332.448 121.112 332.526 121.258C332.623 121.401 332.711 121.549 332.792 121.702C332.968 122.14 332.662 122.618 332.35 122.976C332.154 123.202 331.938 123.505 332.064 123.782C332.125 123.881 332.204 123.97 332.295 124.044C332.504 124.245 332.657 124.496 332.74 124.774C332.823 125.052 332.832 125.347 332.768 125.629C332.704 125.912 332.568 126.174 332.373 126.388C332.178 126.603 331.932 126.763 331.657 126.854" stroke="#615EBF" stroke-miterlimit="10"/>
</g>
</g>
<g opacity="0.5">
<path opacity="0.5" d="M40.2759 142.567C39.2047 141.799 37.8931 141.443 36.5815 141.565C35.2699 141.687 34.0461 142.279 33.1344 143.232C32.1494 144.306 31.6215 145.724 31.6628 147.182C31.7041 148.641 32.3113 150.026 33.3555 151.043L40.1805 157.842C40.3944 158.056 40.6845 158.177 40.9871 158.177C41.2896 158.177 41.5798 158.056 41.7937 157.842L48.5784 151.003C49.617 149.98 50.217 148.592 50.2508 147.134C50.2846 145.675 49.7495 144.261 48.7593 143.191C47.8445 142.244 46.6192 141.658 45.3083 141.542C43.9974 141.427 42.6889 141.789 41.6228 142.562C41.427 142.704 41.1918 142.78 40.9502 142.781C40.7086 142.782 40.4728 142.707 40.2759 142.567Z" fill="#615EBF"/>
<g opacity="0.5">
<path d="M41.035 157.575C40.9567 157.721 40.9157 157.885 40.9157 158.051C40.9157 158.217 40.9567 158.381 41.035 158.527C41.1314 158.67 41.2204 158.818 41.3013 158.97C41.4772 159.408 41.1707 159.887 40.8591 160.244C40.6631 160.471 40.447 160.773 40.5726 161.05C40.6344 161.15 40.7126 161.238 40.8038 161.312C41.0124 161.513 41.1656 161.765 41.2486 162.043C41.3315 162.32 41.3413 162.615 41.2771 162.898C41.2129 163.181 41.0768 163.442 40.882 163.657C40.6872 163.871 40.4404 164.031 40.1655 164.122" fill="#615EBF"/>
<path d="M41.035 157.575C40.9567 157.721 40.9157 157.885 40.9157 158.051C40.9157 158.217 40.9567 158.381 41.035 158.527C41.1314 158.67 41.2204 158.818 41.3013 158.97C41.4772 159.408 41.1707 159.887 40.8591 160.244C40.6631 160.471 40.447 160.773 40.5726 161.05C40.6344 161.15 40.7126 161.238 40.8038 161.312C41.0124 161.513 41.1656 161.765 41.2486 162.043C41.3315 162.32 41.3413 162.615 41.2771 162.898C41.2129 163.181 41.0768 163.442 40.882 163.657C40.6872 163.871 40.4404 164.031 40.1655 164.122" stroke="#615EBF" stroke-miterlimit="10"/>
</g>
</g>
<g opacity="0.5">
<path opacity="0.5" d="M231.253 1.04754L230.962 1.45471C231.245 1.65573 231.582 1.76321 231.929 1.76192C232.275 1.76062 232.612 1.65061 232.893 1.4475L232.893 1.44725C233.862 0.744768 235.05 0.415976 236.241 0.521014C237.43 0.625901 238.542 1.15638 239.373 2.01553C240.272 2.98918 240.758 4.27583 240.728 5.60289C240.697 6.93169 240.15 8.19588 239.204 9.12697L239.204 9.12695L239.2 9.13117L232.417 15.9694C232.416 15.9695 232.416 15.9696 232.416 15.9698C232.296 16.09 232.133 16.1574 231.964 16.1574C231.794 16.1574 231.631 16.0899 231.511 15.9694L231.51 15.9684L224.685 9.16937L224.685 9.16935L224.681 9.16542C223.73 8.23919 223.177 6.97764 223.139 5.6488C223.102 4.32174 223.581 3.03245 224.476 2.05413C225.304 1.19055 226.415 0.654503 227.605 0.543746C228.796 0.432824 229.988 0.755866 230.961 1.45388L231.253 1.04754Z" fill="#615EBF" stroke="#615EBF"/>
<g opacity="0.5">
<path d="M232.012 16.0557C231.933 16.202 231.893 16.3655 231.893 16.5316C231.893 16.6977 231.933 16.8612 232.012 17.0075C232.108 17.1505 232.197 17.2984 232.278 17.4507C232.454 17.8889 232.147 18.3673 231.836 18.7249C231.64 18.9515 231.424 19.2285 231.549 19.5307C231.611 19.6304 231.689 19.7189 231.781 19.7926C231.989 19.9936 232.142 20.2453 232.225 20.5231C232.308 20.801 232.318 21.0956 232.254 21.3784C232.19 21.6612 232.054 21.9226 231.859 22.1371C231.664 22.3517 231.417 22.5121 231.142 22.6028" fill="#615EBF"/>
<path d="M232.012 16.0557C231.933 16.202 231.893 16.3655 231.893 16.5316C231.893 16.6977 231.933 16.8612 232.012 17.0075C232.108 17.1505 232.197 17.2984 232.278 17.4507C232.454 17.8889 232.147 18.3673 231.836 18.7249C231.64 18.9515 231.424 19.2285 231.549 19.5307C231.611 19.6304 231.689 19.7189 231.781 19.7926C231.989 19.9936 232.142 20.2453 232.225 20.5231C232.308 20.801 232.318 21.0956 232.254 21.3784C232.19 21.6612 232.054 21.9226 231.859 22.1371C231.664 22.3517 231.417 22.5121 231.142 22.6028" stroke="#615EBF" stroke-miterlimit="10"/>
</g>
</g>
<g opacity="0.5">
<path opacity="0.5" d="M278.927 71.1021H277.419V79.6637H278.927V71.1021Z" fill="#47E6B1"/>
<path opacity="0.5" d="M282.445 76.1383V74.6274H273.901V76.1383H282.445Z" fill="#47E6B1"/>
</g>
<g opacity="0.5">
<path opacity="0.5" d="M105.037 202.549H103.53V211.111H105.037V202.549Z" fill="#47E6B1"/>
<path opacity="0.5" d="M108.556 207.585V206.074H100.012V207.585H108.556Z" fill="#47E6B1"/>
</g>
<g opacity="0.5">
<path opacity="0.5" d="M65.8368 60.526H64.3291V69.0877H65.8368V60.526Z" fill="#47E6B1"/>
<path opacity="0.5" d="M69.355 65.5623V64.0514H60.8113V65.5623H69.355Z" fill="#47E6B1"/>
</g>
<g opacity="0.5">
<path opacity="0.5" d="M333.707 192.98H332.199V201.542H333.707V192.98Z" fill="#47E6B1"/>
<path opacity="0.5" d="M337.225 198.017V196.506H328.681V198.017H337.225Z" fill="#47E6B1"/>
</g>
<path opacity="0.5" d="M275.454 131.845C275.043 131.659 274.715 131.329 274.53 130.917C274.344 130.505 274.316 130.04 274.449 129.609C274.474 129.543 274.488 129.473 274.489 129.402V129.402C274.508 129.198 274.459 128.993 274.349 128.82C274.239 128.647 274.075 128.515 273.882 128.445C273.69 128.375 273.48 128.372 273.285 128.435C273.09 128.497 272.921 128.623 272.805 128.793V128.793C272.766 128.85 272.732 128.91 272.705 128.974C272.519 129.386 272.19 129.715 271.779 129.9C271.368 130.086 270.904 130.115 270.473 129.981C270.407 129.96 270.337 129.947 270.267 129.941V129.941C270.069 129.928 269.871 129.98 269.704 130.089C269.537 130.198 269.409 130.358 269.34 130.545C269.271 130.733 269.265 130.937 269.321 131.129C269.378 131.32 269.495 131.488 269.654 131.608V131.608C269.711 131.648 269.771 131.682 269.835 131.709C270.247 131.894 270.576 132.224 270.761 132.636C270.946 133.048 270.975 133.513 270.84 133.945C270.82 134.012 270.806 134.081 270.8 134.151C270.787 134.351 270.839 134.549 270.948 134.716C271.056 134.884 271.216 135.011 271.403 135.081C271.59 135.15 271.794 135.156 271.986 135.1C272.177 135.043 272.344 134.926 272.464 134.766V134.766C272.505 134.71 272.539 134.649 272.564 134.584C272.746 134.168 273.075 133.833 273.487 133.643C273.899 133.452 274.366 133.42 274.801 133.552C274.866 133.573 274.933 133.587 275.002 133.592V133.592C275.201 133.605 275.398 133.553 275.565 133.444C275.732 133.336 275.86 133.175 275.929 132.988C275.998 132.801 276.004 132.596 275.948 132.404C275.891 132.213 275.774 132.045 275.615 131.925V131.925C275.564 131.892 275.51 131.865 275.454 131.845Z" fill="#4D8AF0"/>
<path opacity="0.5" d="M92.0157 112.707C91.6051 112.521 91.2764 112.191 91.0913 111.779C90.9062 111.367 90.8775 110.902 91.0106 110.471C91.036 110.405 91.0497 110.335 91.0508 110.264V110.264C91.0697 110.06 91.0204 109.855 90.9106 109.682C90.8008 109.509 90.6368 109.377 90.4442 109.307C90.2516 109.237 90.0413 109.234 89.8464 109.297C89.6515 109.36 89.483 109.486 89.3672 109.655V109.655C89.3278 109.712 89.2941 109.773 89.2667 109.836C89.081 110.248 88.7519 110.577 88.341 110.763C87.9301 110.948 87.4658 110.977 87.0353 110.843C86.9683 110.822 86.8992 110.809 86.8292 110.803V110.803C86.6303 110.79 86.4326 110.842 86.2655 110.951C86.0985 111.06 85.971 111.22 85.902 111.407C85.8331 111.595 85.8264 111.799 85.883 111.991C85.9396 112.182 86.0564 112.351 86.2161 112.47C86.2724 112.51 86.3331 112.544 86.397 112.571C86.813 112.752 87.1479 113.079 87.338 113.492C87.528 113.904 87.5598 114.372 87.4273 114.807C87.4067 114.874 87.3932 114.943 87.3871 115.013C87.3742 115.213 87.426 115.411 87.5347 115.578C87.6433 115.746 87.8031 115.874 87.9901 115.943C88.1771 116.012 88.3814 116.018 88.5725 115.962C88.7636 115.905 88.9313 115.788 89.0506 115.628V115.628C89.0918 115.572 89.1256 115.511 89.1511 115.447C89.3333 115.03 89.6615 114.695 90.0736 114.505C90.4858 114.314 90.9533 114.282 91.3875 114.414C91.4528 114.435 91.5202 114.449 91.5886 114.454C91.7875 114.467 91.9852 114.415 92.1522 114.306C92.3193 114.198 92.4468 114.038 92.5158 113.85C92.5847 113.663 92.5913 113.458 92.5348 113.267C92.4782 113.075 92.3613 112.907 92.2017 112.787V112.787C92.1434 112.753 92.0809 112.726 92.0157 112.707V112.707Z" fill="#4D8AF0"/>
<path opacity="0.5" d="M164.386 14.4994C163.975 14.3134 163.647 13.9835 163.462 13.5718C163.276 13.1601 163.248 12.6948 163.381 12.2633C163.406 12.1974 163.42 12.1275 163.421 12.0568V12.0568C163.44 11.8525 163.391 11.6476 163.281 11.4744C163.171 11.3012 163.007 11.1694 162.814 11.0997C162.622 11.03 162.412 11.0263 162.217 11.0892C162.022 11.1522 161.853 11.2782 161.737 11.4474V11.4474C161.698 11.5044 161.664 11.5651 161.637 11.6287C161.456 12.0448 161.128 12.3798 160.717 12.5701C160.306 12.7604 159.839 12.7928 159.406 12.6612C159.339 12.64 159.269 12.6265 159.199 12.6209V12.6209C159.001 12.608 158.803 12.6599 158.636 12.7688C158.469 12.8777 158.341 13.0378 158.272 13.2252C158.203 13.4126 158.197 13.6173 158.253 13.8088C158.31 14.0003 158.427 14.1683 158.586 14.2879V14.2879C158.643 14.3282 158.703 14.362 158.767 14.3886C159.183 14.5693 159.518 14.8972 159.708 15.3097C159.898 15.7221 159.93 16.1903 159.798 16.6247C159.777 16.692 159.763 16.7612 159.757 16.8312V16.8312C159.744 17.0305 159.796 17.2287 159.905 17.3961C160.014 17.5635 160.173 17.6913 160.36 17.7604C160.547 17.8294 160.752 17.8361 160.943 17.7794C161.134 17.7227 161.301 17.6056 161.421 17.4456V17.4456C161.462 17.3899 161.496 17.3289 161.521 17.2643C161.704 16.8479 162.032 16.5128 162.444 16.3225C162.856 16.1322 163.324 16.1 163.758 16.2319C163.823 16.253 163.89 16.2666 163.959 16.2722V16.2722C164.158 16.285 164.355 16.2332 164.522 16.1243C164.69 16.0154 164.817 15.8553 164.886 15.6679C164.955 15.4805 164.962 15.2758 164.905 15.0843C164.848 14.8928 164.732 14.7248 164.572 14.6052V14.6052C164.515 14.5617 164.452 14.5261 164.386 14.4994V14.4994Z" fill="#4D8AF0"/>
<path d="M284.194 308.628L259.739 289.808C259.739 289.808 257.769 281.971 256.98 276.482C256.191 270.992 255.005 247.473 255.005 247.473C255.566 245.437 255.938 243.353 256.115 241.248C256.357 241.198 256.618 241.137 256.844 241.072C258.673 240.606 260.369 239.72 261.799 238.485C263.228 237.25 264.352 235.7 265.081 233.955C267.594 227.69 264.347 220.287 260.236 215.321C256.125 210.355 250.949 206.367 248.245 200.212C244.908 192.633 246.049 183.462 244.345 175.162C244.182 174 243.752 172.891 243.089 171.924C242.028 170.609 240.375 170.327 238.902 169.803C234.238 168.141 230.741 163.604 228.012 158.864C223.594 151.184 219.021 139.5 209.919 138.835C206.537 138.588 203.009 139.732 199.586 139.722C194.284 139.722 189.032 139.787 183.775 140.517C181.896 140.774 179.951 141.127 178.383 142.366C173 146.636 175.438 157.913 170.251 162.511C168.708 163.871 166.733 164.364 164.989 165.301C158.416 168.826 155.496 178.229 155.883 186.685C156.069 190.653 156.888 194.778 159.225 197.674C161.079 199.991 163.713 201.32 165.442 203.768C168.221 207.706 167.844 212.939 167.542 218.257C163.823 219.819 160.838 221.611 159.898 223.54C156.712 230.022 157.124 252.182 157.124 252.182C157.124 252.182 158.305 288.443 149.229 292.976L115.295 316.495C115.295 316.495 91.222 295.524 85.3017 307.873C81.256 316.319 96.0316 321.098 105.781 323.274C99.635 327.645 96.2326 335.724 99.1123 341.193C103.635 349.82 116.28 355.697 116.28 355.697C116.28 355.697 164.502 358.029 186.791 353.023H187.158C196.621 354.74 210.201 356.549 221.091 355.461C221.302 355.964 221.448 356.287 221.448 356.287C221.448 356.287 291.305 362.169 303.925 338.257C310.398 325.988 303.643 320.328 295.522 317.719C304.613 316.994 314.966 314.445 316.157 306.694C318.329 292.553 284.194 308.628 284.194 308.628ZM277.158 316.127C264.373 320.791 254 321.053 248.471 320.705C245.757 314.773 234.44 289.083 234.143 271.884C234.218 268.046 234.897 264.692 236.43 262.174C239.716 256.75 240.691 252.494 240.581 249.266C240.581 249.029 240.581 248.792 240.581 248.561C240.597 247.574 240.503 246.59 240.299 245.624C240.84 246.954 241 248.409 240.762 249.825C239.581 255.898 242.737 295.297 242.737 295.297C242.737 295.297 245.3 304.121 250.627 306.664L277.158 316.127ZM151.978 313.332L164.25 305.491C164.25 305.491 169.975 302.746 170.568 296.083L174.613 264.239C174.887 265.603 175.248 266.949 175.694 268.268C176.408 270.358 176.699 273.42 176.759 277.066C176.604 294.839 170.568 324.326 170.568 324.326H170.638C170.638 324.412 170.608 324.483 170.598 324.538L170.171 324.563C160.245 324.261 137.112 323.395 124.165 321.597L151.978 313.332ZM130.578 331.891V331.951H127.563L130.578 331.891Z" fill="url(#paint0_linear)"/>
<path d="M227.071 162.062C229.705 166.686 233.102 171.128 237.625 172.724C239.048 173.228 240.641 173.515 241.646 174.799C242.29 175.743 242.708 176.824 242.867 177.957C244.511 186.045 243.41 194.985 246.637 202.383C249.25 208.371 254.25 212.269 258.226 217.099C262.201 221.929 265.317 229.151 262.91 235.255C262.209 236.951 261.125 238.46 259.742 239.665C258.36 240.869 256.717 241.735 254.944 242.195C251.617 243.101 248.144 242.723 244.767 242.124C240.314 241.333 235.781 240.11 232.072 237.088C225.654 231.86 222.94 222.483 219.583 214.138C218.005 210.229 215.909 206.135 212.442 204.74C208.471 203.138 204.003 205.813 201.425 209.736C198.847 213.659 197.706 218.59 196.455 223.334C195.048 228.692 193.269 234.252 189.565 237.758C187.96 239.326 185.937 240.394 183.739 240.834C181.541 241.274 179.264 241.066 177.181 240.236C173.06 238.518 169.804 234.162 168.854 229.11C167.396 221.329 170.894 211.987 166.597 205.833C164.929 203.451 162.381 202.151 160.591 199.895C158.355 197.07 157.541 193.046 157.365 189.183C156.988 180.933 159.807 171.742 166.165 168.328C167.864 167.416 169.758 166.938 171.251 165.608C176.277 161.131 173.905 150.137 179.106 145.966C180.614 144.753 182.504 144.415 184.323 144.158C189.419 143.453 194.48 143.373 199.601 143.388C202.913 143.388 206.325 142.28 209.592 142.522C218.387 143.181 222.805 154.573 227.071 162.062Z" fill="#965D7B"/>
<path d="M132.729 328.793L134.654 351.643L269.287 350.837L266.719 325.893L221.201 320.584L141.383 325.414L132.729 328.793Z" fill="#575988"/>
<path opacity="0.05" d="M132.729 328.793L134.654 351.643L269.287 350.837L266.719 325.893L221.201 320.584L141.383 325.414L132.729 328.793Z" fill="black"/>
<path d="M221.317 344.758L176.498 348.964C176.498 348.964 207.205 356.8 225.132 352.993L221.317 344.758Z" fill="#F7C4A7"/>
<path opacity="0.1" d="M221.317 344.758L176.498 348.964C176.498 348.964 207.205 356.8 225.132 352.993L221.317 344.758Z" fill="black"/>
<path d="M187.178 183.834C187.178 183.834 195.952 206.961 182.981 217.28C170.01 227.599 180.694 256.462 180.694 256.462L230.665 254.166C230.665 254.166 235.62 221.677 232.952 214.797C232.952 214.797 221.126 218.237 218.458 210.975C215.789 203.712 213.879 183.834 213.879 183.834H187.178Z" fill="#F7C4A7"/>
<path d="M175.734 323.737C175.734 323.737 133.584 322.78 121.19 319.708C108.797 316.636 98.1121 331.382 102.5 339.813C106.887 348.244 119.084 353.955 119.084 353.955C119.084 353.955 181.835 357.012 195.375 348.415C195.375 348.415 200.526 333.699 195.375 330.833H129.96L178.207 329.876L175.734 323.737Z" fill="#575988"/>
<path d="M242.677 319.34C242.677 319.34 256.794 322.397 276.243 314.752C276.243 314.752 312.675 313.609 300.467 336.912C288.26 360.215 220.744 354.499 220.744 354.499C220.744 354.499 216.724 345.897 220.744 343.605C224.765 341.314 259.653 326.593 270.524 327.358L240.37 333.281L242.677 319.34Z" fill="#575988"/>
<path opacity="0.1" d="M215.608 194.959C214.879 189.515 214.452 185.078 214.452 185.078H187.75C188.984 188.583 189.839 192.209 190.303 195.896C194.047 198.523 198.545 199.853 203.112 199.684C207.68 199.515 212.067 197.856 215.608 194.959V194.959Z" fill="black"/>
<path d="M201.767 198.454C213.353 198.454 222.744 189.043 222.744 177.433C222.744 165.823 213.353 156.412 201.767 156.412C190.182 156.412 180.79 165.823 180.79 177.433C180.79 189.043 190.182 198.454 201.767 198.454Z" fill="#F7C4A7"/>
<path d="M189.464 214.032C189.464 214.032 164.29 218.811 161.24 225.112C158.189 231.412 158.571 253.018 158.571 253.018C158.571 253.018 159.712 288.372 150.942 292.769L118.134 315.704C118.134 315.704 94.8701 295.257 89.1458 307.294C83.4215 319.33 116.611 323.732 116.611 323.732L153.611 312.652L165.436 305.007C165.436 305.007 170.964 302.333 171.537 295.831L176.498 256.462L196.334 250.726H228.373L232.665 238.448C232.665 238.448 240.58 244.803 239.435 250.726C238.289 256.649 241.344 295.045 241.344 295.045C241.344 295.045 243.822 303.642 248.973 306.125L278.726 316.827C278.726 316.827 310.192 319.884 312.292 306.125C314.393 292.366 281.394 308.084 281.394 308.084L257.728 289.717C257.728 289.717 255.823 282.072 255.059 276.718C254.296 271.365 253.155 248.435 253.155 248.435C253.155 248.435 260.402 224.351 239.419 220.151L212.336 211.74L189.464 214.032Z" fill="#F7C4A7"/>
<path opacity="0.1" d="M172.588 218.907L176.498 244.803C176.498 244.803 172.477 256.845 176.498 268.696C180.518 280.546 171.537 324.704 171.537 324.704C171.537 324.704 218.648 339.813 247.426 322.408C247.426 322.408 226.257 277.685 235.218 262.778C244.179 247.871 235.369 242.039 235.369 242.039L236.746 214.616L230.263 212.702L226.448 239.843C226.448 239.843 200.129 258.19 180.674 242.139L176.478 212.702L172.588 218.907Z" fill="black"/>
<path opacity="0.07" d="M199.797 249.663C197.758 246.401 194.58 244.016 190.882 242.974C187.184 241.932 183.232 242.308 179.795 244.028C186.183 248.838 193.229 250.122 199.797 249.663Z" fill="white"/>
<path opacity="0.07" d="M210.607 246.818C212.642 243.556 215.816 241.171 219.511 240.129C223.206 239.087 227.156 239.462 230.589 241.182C224.217 245.972 217.176 247.251 210.607 246.818Z" fill="white"/>
<path opacity="0.1" d="M172.588 218.907L176.498 243.464C176.498 243.464 172.477 255.506 176.498 267.356C180.518 279.206 171.537 323.354 171.537 323.354C171.537 323.354 218.648 338.463 247.426 321.063C247.426 321.063 226.257 276.341 235.218 261.433C244.179 246.526 235.369 240.694 235.369 240.694L236.746 213.266L230.263 211.358L226.448 238.498C226.448 238.498 200.129 256.845 180.674 240.79L176.478 211.358L172.588 218.907Z" fill="black"/>
<path d="M172.397 218.715L176.498 243.847C176.498 243.847 172.477 255.888 176.498 267.739C180.518 279.589 171.537 323.737 171.537 323.737C171.537 323.737 218.648 338.846 247.426 321.446C247.426 321.446 226.257 276.718 235.218 261.811C244.179 246.904 235.369 241.077 235.369 241.077L236.746 213.649L230.263 211.74L226.448 238.881C226.448 238.881 200.129 257.228 180.674 241.172L176.478 211.74L172.397 218.715Z" fill="#FC6681"/>
<path d="M191.756 333.1L201.671 331.755C201.671 331.755 213.115 317.039 221.317 328.315C221.317 328.315 224.749 335.577 228.946 336.912C231.815 337.783 234.75 338.423 237.721 338.826L220.744 343.605C220.744 343.605 213.306 348.002 205.486 346.854C200.883 346.148 196.178 346.542 191.756 348.002V333.1Z" fill="#F7C4A7"/>
<path opacity="0.1" d="M180.79 270.7C180.79 270.7 198.716 273.374 201.767 268.6Z" fill="black"/>
<path opacity="0.1" d="M214.739 267.643C214.739 267.643 218.171 271.083 231.901 268.6Z" fill="black"/>
<path opacity="0.1" d="M179.83 214.319C179.83 214.319 192.992 216.233 195.47 215.084Z" fill="black"/>
<path opacity="0.1" d="M208.823 214.319C208.823 214.319 221.986 216.233 224.463 215.084Z" fill="black"/>
<path opacity="0.1" d="M193.183 331.669C193.183 331.669 196.812 348.793 193.183 349.397C189.555 350.001 184.413 346.577 184.413 346.194C184.413 345.811 186.7 334.918 186.7 334.918L193.183 331.669Z" fill="black"/>
<path d="M192.806 331.669C192.806 331.669 196.43 348.793 192.806 349.397C189.183 350.001 184.031 346.577 184.031 346.194C184.031 345.811 186.318 334.918 186.318 334.918L192.806 331.669Z" fill="#575988"/>
<path opacity="0.1" d="M175.101 211.811C173.498 215.533 172.93 219.924 174.628 223.601C175.925 226.406 178.463 228.677 178.951 231.729C179.564 235.562 176.729 239.45 177.79 243.182C178.192 244.607 179.131 245.816 180.086 246.949C182.991 250.389 186.851 253.723 191.334 253.456C192.048 246.516 186.057 239.782 188.017 233.089C188.721 230.692 190.369 228.697 191.364 226.411C193.018 222.619 192.781 218.287 192.183 214.193C191.314 208.25 189.113 200.968 183.232 198.188C180.534 196.908 176.699 196.813 175.739 200.288C175.211 202.141 176.443 203.884 176.609 205.697C176.815 207.998 175.99 209.746 175.101 211.811Z" fill="black"/>
<path d="M175.101 211.242C173.498 214.963 172.93 219.35 174.628 223.032C175.925 225.832 178.463 228.108 178.951 231.155C179.564 234.988 176.729 238.876 177.79 242.608C178.192 244.033 179.131 245.247 180.086 246.38C182.991 249.814 186.851 253.149 191.334 252.882C192.048 245.942 186.057 239.208 188.017 232.515C188.721 230.118 190.369 228.123 191.364 225.837C193.018 222.044 192.781 217.713 192.183 213.619C191.314 207.676 189.113 200.393 183.232 197.613C180.534 196.334 176.699 196.244 175.739 199.714C175.211 201.567 176.443 203.309 176.609 205.123C176.815 207.424 175.99 209.172 175.101 211.242Z" fill="#965D7B"/>
<path opacity="0.1" d="M176.593 167.114C176.593 167.114 204.436 163.291 205.2 169.023C205.964 174.754 230.569 184.131 230.569 184.131L224.463 169.023L213.211 150.293C213.211 150.293 192.605 148.782 191.66 150.293C190.716 151.804 179.83 156.79 179.83 156.79L176.593 167.114Z" fill="black"/>
<path d="M176.593 166.731C176.593 166.731 204.436 162.909 205.2 168.64C205.964 174.371 230.569 183.749 230.569 183.749L224.463 168.64L213.211 149.91C213.211 149.91 192.605 148.399 191.66 149.91C190.716 151.421 179.83 156.407 179.83 156.407L176.593 166.731Z" fill="#965D7B"/>
<path opacity="0.1" d="M225.061 207.57C226.415 209.195 227.372 211.115 227.855 213.176C228.318 215.15 228.358 217.205 228.775 219.179C229.71 223.384 232.489 226.92 235.384 230.103C236.324 231.256 237.471 232.223 238.766 232.953C240.093 233.608 241.782 233.744 243.008 232.953C241.842 231.991 241.209 230.526 240.792 229.075C240.204 227.046 239.942 224.937 240.018 222.825C240.143 219.3 241.174 215.578 239.711 212.365C238.867 210.506 237.294 209.096 235.691 207.832C234.575 206.928 233.373 206.136 232.102 205.47C229.73 204.287 227.016 203.768 224.398 203.506C220.99 203.159 223.971 206.281 225.061 207.57Z" fill="black"/>
<path d="M225.061 207.001C226.417 208.623 227.374 210.541 227.855 212.602C228.318 214.576 228.358 216.631 228.775 218.605C229.71 222.81 232.489 226.346 235.384 229.528C236.324 230.682 237.471 231.649 238.766 232.379C240.093 233.034 241.782 233.17 243.008 232.379C241.842 231.417 241.209 229.957 240.792 228.501C240.204 226.472 239.942 224.362 240.018 222.251C240.143 218.726 241.174 215.004 239.711 211.791C238.867 209.937 237.294 208.527 235.691 207.258C234.577 206.35 233.375 205.557 232.102 204.891C229.73 203.707 227.016 203.189 224.398 202.927C220.99 202.584 223.971 205.707 225.061 207.001Z" fill="#965D7B"/>
</g>
<defs>
<linearGradient id="paint0_linear" x1="200.436" y1="356.896" x2="200.436" y2="138.825" gradientUnits="userSpaceOnUse">
<stop stop-color="#808080" stop-opacity="0.25"/>
<stop offset="0.54" stop-color="#808080" stop-opacity="0.12"/>
<stop offset="1" stop-color="#808080" stop-opacity="0.1"/>
</linearGradient>
<clipPath id="clip0">
<rect width="391" height="383.669" fill="white"/>
</clipPath>
</defs>
</svg>
